<svg xmlns="http://www.w3.org/2000/svg" viewBox="0 0 233 46" data-supported-dps="223x40" class="mercado-match" width="223" height="40" focusable="false">
  <path d="M29.39 15.41H22V36.8h-3.17V15.41h-7.42v-2.76h18zm13.47 4.48h3V36.8h-3v-2.86a7 7 0 01-6.11 3.31c-4.83 0-8.49-3.76-8.49-8.94s3.59-8.9 8.42-8.9a7 7 0 016.18 3.38zm0 8.42c0-3.52-2.31-6.24-5.72-6.24s-5.8 2.72-5.8 6.24 2.38 6.28 5.8 6.28 5.75-2.72 5.75-6.28zm5.25-14.52h2.62v23h3V11.27h-5.59zm26.5 15.39v.1h-14a5.45 5.45 0 005.49 5.24 5.76 5.76 0 005.31-3L74 32.73c-1.69 3.24-4.73 4.48-8 4.48-5.07 0-8.62-3.65-8.62-8.83a8.61 8.61 0 018.66-9c4.6.03 8.6 3.17 8.6 9.8zm-3.41-2.25a5.11 5.11 0 00-5.14-4.83 5.44 5.44 0 00-5.46 4.83zm15.61-7.48a7.65 7.65 0 00-5.66 2.62v-2.18h-3V36.8h3V24.86a6.75 6.75 0 015-2.65 3.6 3.6 0 013.8 3.93V36.8h3V25.59c.13-3.76-2.25-6.14-6.11-6.14zm14.72 13.28V22.45h4v-2.56h-4v-5.31h-3v5.31h-2.9v2.56h2.9v10.8c0 2.83 1.93 3.79 4.18 3.79a7 7 0 002.93-.52V34a7.84 7.84 0 01-2.28.44c-1.08.01-1.8-.44-1.8-1.71zm15.69 4.07h3.18V12.65h-3.18zm17-17.35a7.68 7.68 0 00-5.66 2.62v-2.18h-3V36.8h3V24.86a6.75 6.75 0 015-2.65 3.6 3.6 0 013.79 3.93V36.8h3V25.59c.13-3.76-2.25-6.14-6.12-6.14zm18.05 7.83l-3-1.07c-1.41-.49-2-1.17-2-2.11 0-1.24 1.27-2.14 3-2.14a6.77 6.77 0 014.34 1.73l1.59-2.1a8.71 8.71 0 00-5.9-2.18c-3.55 0-6 2.14-6 4.94 0 2.41 1.25 3.82 4.07 4.76l2.18.72c1.79.59 2.79 1.24 2.79 2.62s-1.24 2.28-3.41 2.28a6.89 6.89 0 01-4.8-2l-1.65 2.25a9.64 9.64 0 006.48 2.31c4.38 0 6.56-2.62 6.56-5.07s-1.24-3.87-4.24-4.94zm10.3-15.11a2.17 2.17 0 102.18 2.17 2.16 2.16 0 00-2.17-2.17zm-4 10.28h2.65V36.8h3V19.89h-5.69zm23.77-2.59h3v16.63c0 5.28-4.21 7.35-8.83 7.35a15 15 0 01-7-1.52l.24-2.86a14.63 14.63 0 006.63 1.69c3.59 0 5.93-1.56 5.93-5.11v-2.17a6.82 6.82 0 01-6.07 3.27c-4.79 0-8.45-3.65-8.45-8.86s3.59-8.87 8.42-8.87a6.92 6.92 0 016.1 3.31zm.07 8.42c0-3.52-2.31-6.21-5.73-6.21S171 24.76 171 28.28s2.35 6.24 5.76 6.24 5.7-2.69 5.7-6.24zm16.29-8.83a7.78 7.78 0 00-5.62 2.62v-10.8h-3V36.8h3V24.86a6.75 6.75 0 015-2.65 3.6 3.6 0 013.92 3.93V36.8h3V25.59c0-3.76-2.38-6.14-6.25-6.14zm14.72 13.28V22.45h4v-2.56h-4v-5.31h-3v5.31h-2.9v2.56h2.9v10.8c0 2.83 1.93 3.79 4.17 3.79a6.89 6.89 0 002.93-.52V34a7.68 7.68 0 01-2.27.44c-1.05.01-1.78-.44-1.78-1.71zm15.13-5.45l-3-1.07c-1.41-.49-2-1.17-2-2.11 0-1.24 1.27-2.14 3-2.14a6.82 6.82 0 014.45 1.73l1.58-2.1a8.71 8.71 0 00-5.9-2.18c-3.55 0-6 2.14-6 4.94 0 2.41 1.24 3.82 4.07 4.76l2.17.72c1.79.59 2.8 1.24 2.8 2.62s-1.25 2.28-3.42 2.28a6.89 6.89 0 01-4.8-2l-1.65 2.25a9.64 9.64 0 006.48 2.31c4.39 0 6.56-2.62 6.56-5.07s-1.29-3.87-4.29-4.94z"></path>
</svg>